{
  "title": "Furious 7 (2015) TS *PROPER* [RUS]",
  "uid": 11839188,
  "size": 824922664,
  "categoryP": "video",
  "categoryS": "movies",
  "magnet": "?xt=urn:btih:8ea6e4df95ebea10ded256d240f4e6e4e0328397&amp;dn=Furious+7+%282015%29+TS+%2APROPER%2A+%5BRUS%5D&amp;tr=udp%3A%2F%2Ftracker.openbittorrent.com%3A80&amp;tr=udp%3A%2F%2Fopen.demonii.com%3A1337&amp;tr=udp%3A%2F%2Ftracker.coppersurfer.tk%3A6969&amp;tr=udp%3A%2F%2Fexodus.desync.com%3A6969",
  "seeders": 60,
  "leechers": 1,
  "uploader": "nbdjod",
  "files": 1,
  "time": 1429816794,
  "description": "Furious 7 (2015) TS *PROPER* [RUS]\n\nAudio - RUSSIAN!!!\n\nStoryline\n\nDominic Torretto and his crew thought they left the criminal mercenary life behind. They defeated an international terrorist named Owen Shaw and went their seperate ways. But now, Shaw's brother, Deckard Shaw is out killing the crew one by one for revenge. Worse, a Somalian terrorist called Jakarde, and a shady government official called &quot;Mr. Nobody&quot; are both competing to steal a computer terrorism program called God's Eye, that can turn any technological device into a weapon. Torretto must reconvene with his team to stop Shaw and retrieve the God's Eye program while caught in a power struggle between terrorist and the United States government.\n\nMI:\nGeneral\nFormat                                   : AVI\nFormat/Info                              : Audio Video Interleave\nFile size                                : 787 MiB\nDuration                                 : 2h 11mn\nOverall bit rate                         : 840 Kbps\nWriting application                      : VirtualDubMod 1.5.10.3 | www.virtualdub-fr.org || (build 2550/release)\nWriting library                          : VirtualDub build 35491/release\n\nVideo\nID                                       : 0\nFormat                                   : MPEG-4 Visual\nFormat profile                           : Advanced Simple@L5\nFormat settings, BVOP                    : 2\nFormat settings, QPel                    : No\nFormat settings, GMC                     : No warppoints\nFormat settings, Matrix                  : Default (H.263)\nMuxing mode                              : Packed bitstream\nCodec ID                                 : XVID\nCodec ID/Hint                            : XviD\nDuration                                 : 2h 11mn\nBit rate                                 : 700 Kbps\nWidth                                    : 640 pixels\nHeight                                   : 288 pixels\nDisplay aspect ratio                     : 2.222\nFrame rate                               : 30.000 fps\nColor space                              : YUV\nChroma subsampling                       : 4:2:0\nBit depth                                : 8 bits\nScan type                                : Progressive\nCompression mode                         : Lossy\nBits/(Pixel*Frame)                       : 0.127\nStream size                              : 656 MiB (83%)\nWriting library                          : XviD 73\n\nAudio\nID                                       : 1\nFormat                                   : MPEG Audio\nFormat version                           : Version 1\nFormat profile                           : Layer 3\nMode                                     : Joint stereo\nMode extension                           : MS Stereo\nCodec ID                                 : 55\nCodec ID/Hint                            : MP3\nDuration                                 : 2h 11mn\nBit rate mode                            : Constant\nBit rate                                 : 128 Kbps\nChannel(s)                               : 2 channels\nSampling rate                            : 44.1 KHz\nCompression mode                         : Lossy\nStream size                              : 120 MiB (15%)\nAlignment                                : Split accross interleaves\nInterleave, duration                     : 33 ms (1.00 video frame)\nInterleave, preload duration             : 500 ms\n\n\n\nsample: &lt;a href=&quot;\nhttp://rusfolder.com/43520026&quot; rel=&quot;nofollow&quot; target=&quot;_NEW&quot;&gt;\nhttp://rusfolder.com/43520026&lt;/a&gt;\n\nscreens:\n &lt;a href=&quot;\nhttp://i2.imageban.ru/out/2015/04/23/2e5a7bb67ab6fc59eb2495c5fac5233d.png&quot; rel=&quot;nofollow&quot; target=&quot;_NEW&quot;&gt;\nhttp://i2.imageban.ru/out/2015/04/23/2e5a7bb67ab6fc59eb2495c5fac5233d.png&lt;/a&gt; &lt;a href=&quot;\nhttp://i2.imageban.ru/out/2015/04/23/9c28deebf9307d35906e1779957d62b7.png&quot; rel=&quot;nofollow&quot; target=&quot;_NEW&quot;&gt;\nhttp://i2.imageban.ru/out/2015/04/23/9c28deebf9307d35906e1779957d62b7.png&lt;/a&gt; &lt;a href=&quot;\nhttp://i6.imageban.ru/out/2015/04/23/cdccff1d78cbcb333a5e63d7dcb25f1d.png&quot; rel=&quot;nofollow&quot; target=&quot;_NEW&quot;&gt;\nhttp://i6.imageban.ru/out/2015/04/23/cdccff1d78cbcb333a5e63d7dcb25f1d.png&lt;/a&gt; &lt;a href=&quot;\nhttp://i6.imageban.ru/out/2015/04/23/c95b81d9688b95a119e37db683778bf9.png&quot; rel=&quot;nofollow&quot; target=&quot;_NEW&quot;&gt;\nhttp://i6.imageban.ru/out/2015/04/23/c95b81d9688b95a119e37db683778bf9.png&lt;/a&gt;",
  "parsed": {
    "xt": "urn:btih:8ea6e4df95ebea10ded256d240f4e6e4e0328397",
    "dn": "Furious 7 (2015) TS *PROPER* [RUS]",
    "tr": [
      "udp://exodus.desync.com:6969",
      "udp://open.demonii.com:1337",
      "udp://tracker.coppersurfer.tk:6969",
      "udp://tracker.openbittorrent.com:80"
    ],
    "infoHash": "8ea6e4df95ebea10ded256d240f4e6e4e0328397",
    "infoHashBuffer": {
      "type": "Buffer",
      "data": [
        142,
        166,
        228,
        223,
        149,
        235,
        234,
        16,
        222,
        210,
        86,
        210,
        64,
        244,
        230,
        228,
        224,
        50,
        131,
        151
      ]
    },
    "name": "Furious 7 (2015) TS *PROPER* [RUS]",
    "announce": [
      "udp://exodus.desync.com:6969",
      "udp://open.demonii.com:1337",
      "udp://tracker.coppersurfer.tk:6969",
      "udp://tracker.openbittorrent.com:80"
    ],
    "urlList": []
  },
  "previous": 1,
  "peers": 1,
  "last_updated": "2016-12-27T06:46:25.979Z"
}